<?xml version="1.0" encoding="UTF-8"?>
<svg id="Layer_1" data-name="Layer 1" xmlns="http://www.w3.org/2000/svg" viewBox="0 0 500 500">
  <defs>
    <style>
      .cls-1 {
        font-family: CocoGothic-UltraLight, 'Coco Gothic';
        font-size: 14px;
        font-weight: 100;
      }

      .cls-1, .cls-2 {
        fill: #000;
      }

      .cls-2 {
        stroke-width: 0px;
      }

      .cls-3 {
        letter-spacing: -.02em;
      }

      .cls-4 {
        letter-spacing: -.02em;
      }

      .cls-5 {
        fill: none;
        stroke: #000;
        stroke-miterlimit: 10;
      }

      .cls-6 {
        letter-spacing: -.13em;
      }

      .cls-7 {
        letter-spacing: 0em;
      }

      .cls-8 {
        letter-spacing: 0em;
      }
    </style>
  </defs>
  <g>
    <path class="cls-2" d="M258.42,153.24c4.48-6.65,10.33-8.55,17.58-8.37,13.82.35,27.66.1,41.5.1q6.66,0,6.68,6.9c0,.83.1,1.68-.01,2.5-.52,3.63.8,4.87,4.63,4.88,5.38.02,8.12,3.24,8.19,8.58.08,6.33.11,12.67,0,19-.1,5.5-.39,10.99,3.49,15.77-.91-.86-1.82-1.73-3.46-3.29,0,7.64,0,14.39,0,21.15,0,12.67.04,25.33-.02,38-.03,5.96-2.54,8.53-8.46,8.54-46.67.03-93.33.03-140,0-5.98,0-8.48-2.53-8.49-8.5-.04-30.17-.03-60.33,0-90.5,0-5.62,2.7-8.7,8.49-8.76,3.76-.04,4.3-1.52,4.28-4.75-.06-9.52.06-9.52,9.49-9.52,12.83,0,25.67.28,38.5-.11,7.26-.22,13.11,1.67,17.63,8.37ZM320.04,198.88c0-15.32-.02-30.63.02-45.95,0-2.35.04-4.13-3.28-4.09-14.65.15-29.3-.06-43.95.15-6.98.1-11.93,5.24-11.95,12.14-.07,27.8.03,55.6-.1,83.41-.02,3.35,1.09,4.26,4.27,4.24,16.81-.11,33.63-.17,50.44.03,3.94.05,4.65-1.45,4.61-4.98-.17-14.98-.07-29.97-.07-44.95ZM196.93,198.54c0,15.32.1,30.63-.08,45.94-.04,3.33,1.03,4.31,4.24,4.29,16.98-.11,33.96-.12,50.94,0,3.32.02,4.16-1.15,4.15-4.35-.11-27.47-.03-54.93-.09-82.4-.02-8.1-4.98-13.04-13.15-13.1-13.98-.1-27.97.07-41.95-.1-3.37-.04-4.16,1.1-4.13,4.27.14,15.15.06,30.3.06,45.45ZM258.5,263.11c22.66,0,45.33-.04,67.99.04,3.84.01,6.58-.69,6.58-5.33-.03-29.66-.03-59.33,0-88.99,0-3.76-1.7-5.42-5.43-5.55-4.58-.16-3.44,3.13-3.44,5.54-.05,26-.14,52,.07,77.99.04,4.84-1.44,6.2-6.24,6.18-39.66-.17-79.33-.19-118.99.02-5.2.03-6.44-1.62-6.4-6.55.21-26.16.11-52.33.08-78.49,0-2.02.73-4.64-2.81-4.65-3.15,0-5.69.69-5.9,4.49-.05.83-.04,1.67-.04,2.5,0,28.66-.01,57.33.01,85.99,0,6.08.77,6.8,7.02,6.8,22.5.01,45,0,67.49,0Z"/>
    <path class="cls-2" d="M379.14,266.13c.05.33-.02.82.17.96,17.48,12.83,9.9,40.95-2.71,53.25-4.99,4.87-10.54,8.72-17.61,9.67-12.2,1.64-22.22-5.96-23.83-18.68-2.22-17.55,4.32-31.67,18.52-41.97,6.58-4.77,14.08-6.65,22.18-3.56.85.33,1.95.02,2.93,0l.35.32ZM377.57,271.32c-2.69,3.79-4.34,6.98-2.05,11.6,1.87,3.78-1.5,10.78-5.79,11.93-4.52,1.21-6.31,4.11-7.93,7.78-.47,1.08-.86,2.94-2.72,2.01-1.93-.97-.26-2.25.03-3.38.67-2.61,3.61-4.43,2.51-7.67-2.94-8.67-.74-12.82,8.08-16.12,3.18-1.19,3.98-4.65,4.04-7.31.05-1.97-3.26-1.8-5.06-1.78-4.21.04-8.23,1.23-11.77,3.6-12.12,8.12-18.23,19.66-18.26,34.11-.02,7.77,2.32,15.08,10.1,18.69,7.85,3.64,15.09.98,21.35-4.02,10.37-8.29,15.6-19.29,15.33-32.62-.13-6.51-2.07-12.42-7.86-16.81ZM371.93,285.32c-.07-1.89-.39-3.81-2.57-3.59-3.6.36-4.75,3.27-5.22,6.33-.29,1.88.21,4.16,2.66,3.72,3.35-.6,4.51-3.52,5.13-6.45Z"/>
    <path class="cls-2" d="M158.89,202.69c-3.25,0-6.49,0-9.74,0-1.39,0-2.75-.11-2.83-1.98-.09-1.96,1.38-2.05,2.7-2.07,5.16-.06,10.32-.08,15.48-.02,1.22.01,2.82-.39,3.28,1.43.42,1.67-.34,2.79-1.74,3.73-3.98,2.69-7.89,5.49-12.42,8.65,4.14,1.36,7.74.48,11.24.73,1.55.11,3.12-.02,2.97,2.26-.13,2.1-1.77,1.65-2.97,1.67-4.83.07-9.66.1-14.48-.02-1.45-.04-3.55.92-4.09-1.55-.47-2.14.86-3.36,2.47-4.45,3.51-2.38,6.96-4.84,10.44-7.27-.11-.37-.21-.74-.32-1.11Z"/>
    <path class="cls-2" d="M146.07,274.78c0-6.21,4.88-11.02,11.1-10.96,6.3.06,10.93,4.85,10.83,11.18-.1,6.01-4.81,10.72-10.8,10.81-6.09.09-11.13-4.91-11.13-11.03ZM164.16,274.93c.08-3.84-2.9-6.95-6.81-7.1-4.09-.15-7.47,3.04-7.43,7.01.04,3.72,3.32,6.94,7.09,6.96,3.79.02,7.07-3.13,7.15-6.87Z"/>
    <path class="cls-2" d="M156.81,154.79c-.5,0-1.09.18-1.48-.02-2.98-1.51-9.06,3.79-9.12-4.2-.06-8.41,4.08-14.01,10.68-14.19,7.56-.2,14.2,10.38,10.87,17.23-.7,1.44-1.88,1.13-2.96,1.16-2.66.06-5.32.02-7.98.03ZM156.65,151.06c2.33-1.61,6.88,2.47,7.4-3.15.37-4.05-3.07-7.44-7.07-7.4-3.73.04-6.96,3.23-6.98,7.08-.03,5.64,4.49,1.99,6.65,3.46Z"/>
    <path class="cls-2" d="M156.86,237.79q-10.76-.02-10.63-10.73c.01-1-.01-2,.09-2.99.13-1.26,1.12-1.59,2.16-1.54.96.05,1.44.76,1.46,1.69.05,2.16.06,4.33.05,6.5,0,1.62.16,3.03,2.3,3.05,1.98.02,2.35-1.13,2.64-2.84.33-1.98-1.5-5.62,1.77-5.58,3.31.04,1.44,3.7,1.73,5.71.31,2.17,1.25,2.78,3.26,2.75,2.1-.03,2.44-1.23,2.42-2.93-.04-2.16,0-4.33.02-6.5,0-1.3.3-2.25,1.94-2.21,1.69.04,1.79,1.14,1.8,2.36.02,3.33-.13,6.67.06,9.99.16,2.78-1.14,3.43-3.58,3.3-2.49-.13-5-.03-7.5-.03Z"/>
    <path class="cls-2" d="M157.23,175.12q-12.31,0-11-12.31c.14-1.36.03-2.74,2.01-2.71,2.13.03,1.67,1.64,1.73,2.86.08,1.82.08,3.65.03,5.48-.06,1.82.55,2.79,2.56,2.72,1.72-.07,2.07-.95,2.38-2.48.42-2.06-1.49-5.79,1.46-5.91,3.83-.16,1.67,3.8,2.06,5.89.35,1.89,1,2.48,2.83,2.54,2.17.07,3.01-.76,2.85-2.89-.11-1.49-.15-3,.02-4.48.17-1.43-.96-3.77,1.73-3.84,3.14-.08,1.83,2.55,1.97,4.08.2,2.31-.15,4.67.1,6.97.37,3.38-1.05,4.44-4.23,4.13-2.14-.21-4.31-.04-6.47-.03Z"/>
    <path class="cls-2" d="M156.83,257.93c-1,0-2.01.1-2.99-.01-2.41-.28-5.97,1.28-7.01-.86-1.46-2.99-1.16-6.86.04-10.19,1.13-3.13,3.71-4.84,7.03-4.39,3.21.43,5.91,2.41,5.86,5.81-.07,4.33,1,6.61,5.76,5.8,1.21-.21,2.28.09,2.36,1.76.1,1.99-1.14,2.08-2.56,2.08-2.83,0-5.66,0-8.48,0ZM156.6,251.46c-.21-2.92-.76-5.01-3.71-4.78-2.58.2-2.91,2.12-3.09,4.27-.25,2.94,1.4,3.11,3.65,3.13,2.37.03,3.4-.85,3.15-2.62Z"/>
    <path class="cls-2" d="M350.28,211.42c2.82,1.36,4.46.88,6.38-1.42,2.33-2.8,5.79-3.86,9.5-2.29,1.6.68,2.86,1.75,2.93,3.68.08,2.18-1.3,3.25-3.09,4.05-1.77.8-3.73.96-5.37.37-4.29-1.53-6.71-.99-5.83,4.7-1.53-3.26.47-7.64-4.51-9.08ZM361.31,214.96c2.88-.21,6.09.13,6.5-3.39.28-2.46-2.31-3.22-4.24-3.25-3.1-.04-6.65.98-7.09,4.19-.35,2.6,3.31,1.55,4.83,2.44Z"/>
    <path class="cls-2" d="M378.79,265.82c6.33-12.5-1.94-19.83-10.05-27.49,8.54,3.37,14.97,14.61,13.29,22.84-.4,1.95-.91,3.91-2.9,4.96l-.35-.32Z"/>
    <path class="cls-2" d="M161.19,186.31c0,1.4.03,2.38,0,3.36-.05,1.18-.15,2.41-1.81,2.26-1.35-.13-1.29-1.24-1.33-2.2-.04-.98-.22-2.01.01-2.93.45-1.79-1.5-5.11,1.74-5.03,2.44.05,1,3.23,1.4,4.55Z"/>
    <path class="cls-2" d="M289.87,171.68c-4.48,0-8.97-.01-13.45,0-1.42,0-2.91-.23-3.05-1.84-.17-1.95,1.52-2.47,3.04-2.48,9.3-.06,18.6-.03,27.9.02,1.41,0,2.83.53,2.8,2.18-.04,2.03-1.72,2.13-3.28,2.13-4.65,0-9.3,0-13.95,0Z"/>
    <path class="cls-2" d="M290.43,202.68c-4.5,0-8.99.03-13.49-.01-1.71-.02-3.67-.27-3.56-2.47.09-1.81,1.86-2.07,3.44-2.07,8.99,0,17.98,0,26.98,0,1.58,0,3.23.24,3.29,2.21.06,2-1.62,2.31-3.17,2.33-4.5.05-8.99.02-13.49.02Z"/>
    <path class="cls-2" d="M290.07,182.99c4.64,0,9.29-.02,13.93,0,1.52,0,3.25,0,3.1,2.19-.12,1.79-1.66,1.81-3,1.81-9.29.01-18.57.01-27.86,0-1.39,0-2.85-.22-2.89-1.96-.04-1.75,1.39-2.04,2.79-2.05,4.64-.02,9.29,0,13.93,0Z"/>
    <path class="cls-2" d="M290.05,217.89c-4.31,0-8.61.02-12.92,0-1.62,0-3.71.27-3.73-2.08-.02-1.97,1.86-2.04,3.35-2.05,9.11-.03,18.21-.03,27.32.02,1.3,0,2.87.08,2.96,1.89.11,2.12-1.51,2.23-3.08,2.23-4.64,0-9.27,0-13.91,0Z"/>
    <path class="cls-2" d="M290.02,233.26c-4.47,0-8.94.04-13.41-.02-1.46-.02-3.28-.03-3.21-2.15.06-1.65,1.48-1.97,2.9-1.97,9.27,0,18.55,0,27.82,0,1.39,0,2.8.14,2.91,1.92.14,2.25-1.66,2.18-3.1,2.2-4.64.07-9.27.02-13.91.03Z"/>
    <path class="cls-2" d="M226.91,171.69c-4.66,0-9.33,0-13.99,0-1.62,0-3.24-.29-3.18-2.25.05-1.58,1.52-2.1,2.94-2.1,9.33-.03,18.65-.03,27.98.02,1.39,0,2.91.58,2.95,2.11.06,1.95-1.61,2.22-3.21,2.22-4.5,0-8.99,0-13.49,0Z"/>
    <path class="cls-2" d="M226.48,202.68c-4.47,0-8.94.02-13.41,0-1.57,0-3.28-.35-3.31-2.22-.03-1.82,1.55-2.33,3.19-2.33,9.11,0,18.22,0,27.32,0,1.6,0,3.27.36,3.31,2.18.04,1.78-1.58,2.36-3.19,2.37-4.64.03-9.27.01-13.91.01Z"/>
    <path class="cls-2" d="M226.51,187c-4.65,0-9.31,0-13.96,0-1.43,0-2.79-.19-2.82-1.99-.02-1.82,1.35-2.03,2.77-2.03,9.47,0,18.94,0,28.42.01,1.49,0,2.77.48,2.61,2.21-.12,1.35-1.29,1.79-2.57,1.79-4.82,0-9.64,0-14.46,0Z"/>
    <path class="cls-2" d="M226.05,217.89c-4.49,0-8.97-.01-13.46,0-1.46,0-2.76-.25-2.8-2.03-.04-1.83,1.38-2.1,2.75-2.1,9.31-.03,18.61-.03,27.92,0,1.51,0,3.27.22,3.09,2.3-.14,1.64-1.63,1.83-3.04,1.82-4.82-.02-9.64,0-14.46,0Z"/>
    <path class="cls-2" d="M226.25,233.26c-4.48,0-8.97.02-13.45-.01-1.35,0-2.93-.1-3.04-1.83-.13-1.99,1.4-2.32,3.06-2.32,9.3.02,18.6.02,27.9,0,1.49,0,2.77.42,2.81,2.07.04,1.78-1.49,2.02-2.83,2.04-4.82.06-9.63.02-14.45.02,0,0,0,.01,0,.02Z"/>
  </g>
  <path class="cls-5" d="M337.04,195.15c.28,1.68,2,11.02,10.4,15.63,2.46,1.35,4.88,1.96,6.84,2.23"/>
  <path class="cls-5" d="M354.77,213.14c-.36,2.32-.92,7.96,1.94,14.04,4.27,9.1,12.88,12.18,14.54,12.74"/>
  <text class="cls-1" transform="translate(212.89 287.66)"><tspan x="0" y="0">Image Alt-</tspan><tspan class="cls-6" x="66.99" y="0">T</tspan><tspan class="cls-4" x="73.65" y="0">e</tspan><tspan x="81.03" y="0">xt</tspan><tspan x="0" y="16.8" xml:space="preserve">   Gene</tspan><tspan class="cls-3" x="46.44" y="16.8">r</tspan><tspan class="cls-8" x="51.55" y="16.8">a</tspan><tspan class="cls-7" x="60.02" y="16.8">t</tspan><tspan x="64.47" y="16.8">or</tspan></text>
</svg>